<?xml version="1.0" standalone="no"?>
<!DOCTYPE svg PUBLIC "-//W3C//DTD SVG 20010904//EN"
 "http://www.w3.org/TR/2001/REC-SVG-20010904/DTD/svg10.dtd">
<svg version="1.0" xmlns="http://www.w3.org/2000/svg"
 width="840.000000pt" height="866.000000pt" viewBox="0 0 840.000000 866.000000"
 preserveAspectRatio="xMidYMid meet">

<g transform="translate(0.000000,866.000000) scale(0.100000,-0.100000)"
fill="#000000" stroke="none">
<path d="M304 8241 c-23 -10 -52 -34 -65 -52 l-24 -34 0 -697 c0 -691 0 -697
21 -725 11 -15 36 -38 54 -50 61 -42 157 -22 205 41 19 27 20 44 25 619 l5
592 540 5 c522 5 541 6 575 26 19 11 45 36 58 55 20 28 23 44 20 92 -4 49 -9
62 -38 92 -19 19 -50 40 -70 45 -21 6 -277 10 -650 10 -578 0 -617 -2 -656
-19z"/>
<path d="M6796 8250 c-16 -5 -40 -19 -53 -32 -79 -73 -70 -186 20 -252 28 -21
38 -21 578 -24 l549 -3 0 -588 0 -588 23 -33 c67 -98 216 -90 267 15 20 41 20
57 18 726 l-3 684 -24 34 c-13 18 -42 42 -65 52 -39 17 -77 19 -661 18 -341 0
-633 -5 -649 -9z"/>
<path d="M1290 5910 l0 -1340 1338 2 1337 3 0 1335 0 1335 -1337 3 -1338 2 0
-1340z m2260 0 l0 -920 -925 0 -925 0 0 920 0 920 925 0 925 0 0 -920z"/>
<path d="M2145 6378 c-3 -7 -4 -222 -3 -478 l3 -465 483 -3 482 -2 -2 477 -3
478 -478 3 c-377 2 -479 0 -482 -10z"/>
<path d="M4410 5910 l0 -1340 1340 0 1340 0 0 1340 0 1340 -1340 0 -1340 0 0
-1340z m2260 0 l0 -920 -920 0 -920 0 0 920 0 920 920 0 920 0 0 -920z"/>
<path d="M5270 5910 l0 -480 480 0 480 0 0 480 0 480 -480 0 -480 0 0 -480z"/>
<path d="M1290 2800 l0 -1340 1340 0 1340 0 -2 1338 -3 1337 -1337 3 -1338 2
0 -1340z m2260 0 l0 -920 -925 0 -925 0 0 920 0 920 925 0 925 0 0 -920z"/>
<path d="M2145 3258 c-3 -13 -4 -228 -3 -478 l3 -455 483 -3 482 -2 0 480 0
480 -480 0 -480 0 -5 -22z"/>
<path d="M5970 3900 l0 -240 305 0 305 0 0 -350 0 -350 240 0 240 0 0 525 c0
518 0 525 -20 525 -18 0 -20 7 -20 65 l0 65 -525 0 -525 0 0 -240z"/>
<path d="M4990 3845 l0 -235 -235 0 -235 0 2 -237 3 -238 233 -3 232 -2 0
-230 0 -230 240 0 240 0 0 230 0 230 230 0 230 0 0 240 0 240 -230 0 -230 0
-2 233 -3 232 -237 3 -238 2 0 -235z"/>
<path d="M5990 2840 l0 -230 -230 0 -230 0 0 -240 0 -240 230 0 230 0 0 -230
0 -230 23 -5 c12 -3 119 -4 237 -3 l215 3 3 233 2 232 235 0 235 0 0 240 0
240 -235 0 -235 0 0 230 0 230 -240 0 -240 0 0 -230z"/>
<path d="M4447 2653 c-4 -3 -7 -240 -7 -525 l0 -518 545 0 545 0 0 235 0 235
-302 2 -303 3 -3 288 -2 287 -233 0 c-129 0 -237 -3 -240 -7z"/>
<path d="M281 1978 c-19 -12 -44 -36 -55 -51 -21 -28 -21 -34 -21 -727 0 -689
0 -699 21 -727 11 -15 40 -38 65 -51 l44 -22 637 2 c628 3 637 3 665 24 101
75 97 207 -7 268 -34 20 -51 21 -577 24 l-543 3 0 580 c0 641 1 625 -63 671
-46 33 -123 36 -166 6z"/>
<path d="M7972 1983 c-19 -9 -44 -32 -58 -52 l-24 -36 0 -587 0 -587 -542 -3
c-527 -3 -544 -4 -578 -24 -104 -61 -108 -193 -7 -268 28 -21 37 -21 665 -24
l637 -2 44 22 c25 13 54 36 65 51 21 28 21 38 21 727 0 693 0 699 -21 727 -51
69 -131 91 -202 56z"/>
</g>
</svg>
