<?xml version="1.0" standalone="no"?>
<!DOCTYPE svg PUBLIC "-//W3C//DTD SVG 20010904//EN"
 "http://www.w3.org/TR/2001/REC-SVG-20010904/DTD/svg10.dtd">
<svg version="1.0" xmlns="http://www.w3.org/2000/svg"
 width="514.000000pt" height="514.000000pt" viewBox="0 0 514.000000 514.000000"
 preserveAspectRatio="xMidYMid meet">

<g transform="translate(0.000000,514.000000) scale(0.100000,-0.100000)"
fill="#000000" stroke="none">
<path d="M1847 5115 c-50 -17 -85 -50 -108 -100 -18 -38 -19 -83 -19 -845 0
-760 1 -807 19 -845 69 -154 313 -154 382 0 17 37 19 82 19 708 l0 667 1280 0
1280 0 0 -2130 0 -2130 -1280 0 -1280 0 0 668 c0 625 -2 670 -19 707 -69 154
-313 154 -382 0 -18 -38 -19 -85 -19 -845 0 -760 1 -807 19 -845 22 -50 69
-91 119 -105 58 -16 3082 -14 3136 2 52 16 108 72 124 124 17 58 18 4794 0
4845 -19 57 -49 90 -102 115 l-51 24 -1540 -1 c-1278 0 -1547 -2 -1578 -14z"/>
<path d="M1015 3628 c-34 -9 -110 -80 -505 -472 -256 -253 -473 -477 -482
-496 -23 -46 -23 -134 0 -180 20 -42 914 -931 957 -953 52 -26 92 -29 147 -13
89 26 158 115 158 203 -1 79 -29 116 -298 386 l-256 257 1375 0 1376 0 44 23
c29 15 54 40 74 71 25 41 29 58 29 116 0 58 -4 75 -29 116 -20 31 -45 56 -74
71 l-44 23 -1376 0 -1375 0 256 258 c269 269 297 306 298 385 0 70 -54 157
-120 192 -37 19 -109 25 -155 13z"/>
</g>
</svg>
